<!DOCTYPE svg PUBLIC "-//W3C//DTD SVG 1.1//EN" "http://www.w3.org/Graphics/SVG/1.1/DTD/svg11.dtd">
<!-- Uploaded to: SVG Repo, www.svgrepo.com, Transformed by: SVG Repo Mixer Tools -->
<svg height="64px" width="64px" version="1.1" id="Capa_1" xmlns="http://www.w3.org/2000/svg" xmlns:xlink="http://www.w3.org/1999/xlink" viewBox="0 0 384.391 384.391" xml:space="preserve" fill="#000000">
<g id="SVGRepo_bgCarrier" stroke-width="0"/>
<g id="SVGRepo_tracerCarrier" stroke-linecap="round" stroke-linejoin="round"/>
<g id="SVGRepo_iconCarrier"> <g> <path style="fill:#FFFFFF;" d="M149.532,358.775v-4.689h-10v4.689c0,5.854,4.763,10.615,10.617,10.615h9.768 c0.039,0,0.077-0.005,0.116-0.006C154.232,369.321,149.532,364.59,149.532,358.775z"/> <path style="fill:#FFFFFF;" d="M155.029,54.971c-6.046,3.096-7.716,14.166-7.988,21.99h6c0.221-6.327,1.357-14.773,4.98-19.412 C157.168,56.45,156.179,55.562,155.029,54.971z"/> <path style="fill:#FFFFFF;" d="M224.089,256.734h20.77v-10h-30.77v110.889c0,5.636,4.453,10.236,10.025,10.5 c-0.008-0.167-0.025-0.331-0.025-0.5V256.734z"/> <path style="fill:#FFFFFF;" d="M153.239,101.961h17.293v-4.26c0-3.285-1.957-5.74-3.707-5.74h-23.586 c-1.75,0-3.707,2.455-3.707,5.74v241.385h10V107.701C149.532,104.416,151.489,101.961,153.239,101.961z"/> <path style="fill:#FFA6BB;" d="M163.006,76.961c-0.232-6.331-1.381-14.775-4.984-19.412c-3.623,4.639-4.76,13.085-4.98,19.412 H163.006z"/> <path style="fill:none;" d="M163.006,76.961c-0.232-6.331-1.381-14.775-4.984-19.412c-0.854-1.099-1.842-1.986-2.992-2.578 c-6.046,3.096-7.716,14.166-7.988,21.99h6H163.006z"/> <path style="fill:#BA82AA;" d="M149.532,107.701v231.385h21V101.961h-17.293C151.489,101.961,149.532,104.416,149.532,107.701z"/> <path style="fill:none;" d="M163.006,76.961c-0.232-6.331-1.381-14.775-4.984-19.412c-0.854-1.099-1.842-1.986-2.992-2.578 c-6.046,3.096-7.716,14.166-7.988,21.99h6H163.006z"/> <path style="fill:none;" d="M170.532,339.086V101.961v-4.26c0-3.285-1.957-5.74-3.707-5.74h-23.586c-1.75,0-3.707,2.455-3.707,5.74 v241.385h10H170.532z"/> <path style="fill:#FFA6BB;" d="M160.033,369.385c5.8-0.064,10.499-4.795,10.499-10.609v-4.689h-21v4.689 C149.532,364.59,154.232,369.321,160.033,369.385z"/> <path style="fill:#7F3960;" d="M178.081,81.174c0.443-13.242-2.582-32.066-15.549-39.215V7.5c0-4.143-3.357-7.5-7.5-7.5 c-4.143,0-7.5,3.357-7.5,7.5v34.459c-12.966,7.15-15.992,25.973-15.549,39.215c-4.516,3.789-7.451,9.777-7.451,16.527v261.074 c0,14.125,11.492,25.615,25.617,25.615h9.768c14.124,0,25.615-11.49,25.615-25.615V97.701 C185.532,90.951,182.597,84.965,178.081,81.174z M155.029,54.971c1.15,0.592,2.139,1.479,2.992,2.578 c3.604,4.637,4.752,13.081,4.984,19.412h-9.965h-6C147.314,69.137,148.983,58.066,155.029,54.971z M139.532,97.701 c0-3.285,1.957-5.74,3.707-5.74h23.586c1.75,0,3.707,2.455,3.707,5.74v4.26v237.125h-21h-10V97.701z M150.149,369.391 c-5.854,0-10.617-4.762-10.617-10.615v-4.689h10h21v4.689c0,5.814-4.699,10.546-10.499,10.609 c-0.039,0.001-0.077,0.006-0.116,0.006H150.149z"/> <path style="fill:#BA82AA;" d="M224.089,367.623c0,0.169,0.018,0.333,0.025,0.5l0,0c0.167,0.008,0.331,0.025,0.5,0.025h9.719 c5.804,0,10.525-4.721,10.525-10.525V256.734h-20.77V367.623z"/> <path style="fill:#7F3960;" d="M252.358,231.734h-45.77c-4.143,0-7.5,3.357-7.5,7.5v118.389c0,14.074,11.45,25.525,25.525,25.525 h9.719c14.074,0,25.525-11.451,25.525-25.525V239.234C259.858,235.092,256.501,231.734,252.358,231.734z M214.089,357.623V246.734 h30.77v10v100.889c0,5.805-4.722,10.525-10.525,10.525h-9.719c-0.169,0-0.333-0.018-0.5-0.025 C218.543,367.859,214.089,363.259,214.089,357.623z"/> </g> </g>
</svg>