<!DOCTYPE svg PUBLIC "-//W3C//DTD SVG 1.1//EN" "http://www.w3.org/Graphics/SVG/1.1/DTD/svg11.dtd">
<!-- Uploaded to: SVG Repo, www.svgrepo.com, Transformed by: SVG Repo Mixer Tools -->
<svg version="1.1" id="Capa_1" xmlns="http://www.w3.org/2000/svg" xmlns:xlink="http://www.w3.org/1999/xlink" viewBox="0 0 339.247 339.247" xml:space="preserve" width="64px" height="64px" fill="#000000">
<g id="SVGRepo_bgCarrier" stroke-width="0"/>
<g id="SVGRepo_tracerCarrier" stroke-linecap="round" stroke-linejoin="round"/>
<g id="SVGRepo_iconCarrier"> <g> <polygon style="fill:#FFFFFF;" points="205.324,112.328 205.324,105.328 133.923,105.328 133.923,141.384 143.923,141.384 143.923,112.328 "/> <path style="fill:#FFFFFF;" d="M90.972,54.273c2.45,54.265,10.76,145.445,38.375,216.151h10 c-27.615-70.706-35.925-161.887-38.375-216.151H90.972z"/> <path style="fill:#FFFFFF;" d="M131.822,285.425v28.689c0,3.05,1.355,5.782,3.487,7.648c1.342-4.586,3.582-8.793,6.513-12.418 v-23.919H131.822z"/> <path style="fill:#FFFFFF;" d="M103.019,25V15H89.977c0.014,5.466,0.104,13.78,0.425,24.273h9.745 c-0.118-5.858-0.161-10.684-0.17-14.273H103.019z"/> <rect x="118.019" y="15" style="fill:#FFFFFF;" width="14.553" height="10"/> <rect x="147.571" y="15" style="fill:#FFFFFF;" width="14.553" height="10"/> <rect x="206.677" y="15" style="fill:#FFFFFF;" width="14.552" height="10"/> <rect x="177.124" y="15" style="fill:#FFFFFF;" width="14.553" height="10"/> <path style="fill:#FFFFFF;" d="M249.272,15h-13.044v10h12.951C249.241,21.038,249.266,17.675,249.272,15z"/> <path style="fill:#FFAB97;" d="M150.293,324.287h38.664c-3.016-7.744-10.533-13.257-19.332-13.257 C160.826,311.03,153.309,316.543,150.293,324.287z"/> <path style="fill:none;" d="M131.822,314.113c0,3.05,1.355,5.782,3.487,7.648c4.346-14.85,18.08-25.732,34.316-25.732 c16.234,0,29.969,10.881,34.314,25.729c2.131-1.866,3.485-4.598,3.485-7.646v-28.689h-75.603V314.113z"/> <path style="fill:none;" d="M169.625,311.03c-8.799,0-16.316,5.513-19.332,13.257h38.664 C185.941,316.543,178.424,311.03,169.625,311.03z"/> <path style="fill:none;" d="M169.625,311.03c-8.799,0-16.316,5.513-19.332,13.257h38.664 C185.941,316.543,178.424,311.03,169.625,311.03z"/> <path style="fill:none;" d="M131.822,314.113c0,3.05,1.355,5.782,3.487,7.648c4.346-14.85,18.08-25.732,34.316-25.732 c16.234,0,29.969,10.881,34.314,25.729c2.131-1.866,3.485-4.598,3.485-7.646v-28.689h-75.603V314.113z"/> <path style="fill:none;" d="M90.972,54.273c2.45,54.265,10.76,145.445,38.375,216.151h10H209.9 c27.629-70.736,35.934-161.896,38.381-216.151H100.972H90.972z"/> <path style="fill:#FF8269;" d="M100.147,39.273h2.872V25h-3.042C99.985,28.59,100.028,33.416,100.147,39.273z"/> <rect x="177.124" y="15" style="fill:none;" width="14.553" height="10"/> <rect x="147.571" y="15" style="fill:none;" width="14.553" height="10"/> <path style="fill:none;" d="M103.019,39.273V25V15H89.977c0.014,5.466,0.104,13.78,0.425,24.273h9.745H103.019z"/> <rect x="118.019" y="15" style="fill:none;" width="14.553" height="10"/> <rect x="206.677" y="15" style="fill:none;" width="14.552" height="10"/> <path style="fill:none;" d="M90.972,54.273c2.45,54.265,10.76,145.445,38.375,216.151h10H209.9 c27.629-70.736,35.934-161.896,38.381-216.151H100.972H90.972z"/> <path style="fill:none;" d="M169.625,311.03c-8.799,0-16.316,5.513-19.332,13.257h38.664 C185.941,316.543,178.424,311.03,169.625,311.03z"/> <path style="fill:none;" d="M236.229,25h12.951c0.062-3.962,0.086-7.325,0.093-10h-13.044V25z"/> <path style="fill:none;" d="M131.822,314.113c0,3.05,1.355,5.782,3.487,7.648c4.346-14.85,18.08-25.732,34.316-25.732 c16.234,0,29.969,10.881,34.314,25.729c2.131-1.866,3.485-4.598,3.485-7.646v-28.689h-75.603V314.113z"/> <rect x="118.019" y="25" style="fill:#FF8269;" width="14.553" height="14.273"/> <rect x="147.571" y="25" style="fill:#FF8269;" width="14.553" height="14.273"/> <rect x="177.124" y="25" style="fill:#FF8269;" width="14.553" height="14.273"/> <rect x="206.677" y="25" style="fill:#FF8269;" width="14.552" height="14.273"/> <path style="fill:#FF8269;" d="M236.229,39.273h12.621c0.164-5.356,0.267-10.141,0.33-14.273h-12.951V39.273z"/> <path style="fill:none;" d="M103.019,39.273V25V15H89.977c0.014,5.466,0.104,13.78,0.425,24.273h9.745H103.019z"/> <polygon style="fill:none;" points="162.124,25 162.124,15 147.571,15 147.571,25 147.571,39.273 162.124,39.273 "/> <polygon style="fill:none;" points="221.229,25 221.229,15 206.677,15 206.677,25 206.677,39.273 221.229,39.273 "/> <polygon style="fill:none;" points="191.677,25 191.677,15 177.124,15 177.124,25 177.124,39.273 191.677,39.273 "/> <polygon style="fill:none;" points="132.571,25 132.571,15 118.019,15 118.019,25 118.019,39.273 132.571,39.273 "/> <path style="fill:none;" d="M141.822,285.425h-10v28.689c0,3.05,1.355,5.782,3.487,7.648c1.343-4.586,3.582-8.793,6.513-12.418 V285.425z"/> <path style="fill:none;" d="M236.229,25v14.273h12.621c0.164-5.356,0.267-10.141,0.33-14.273c0.062-3.962,0.086-7.325,0.093-10 h-13.044V25z"/> <path style="fill:none;" d="M169.625,311.03c-8.799,0-16.316,5.513-19.332,13.257h38.664 C185.941,316.543,178.424,311.03,169.625,311.03z"/> <path style="fill:none;" d="M90.972,54.273c2.45,54.265,10.76,145.445,38.375,216.151h10H209.9 c27.629-70.736,35.934-161.896,38.381-216.151H100.972H90.972z"/> <path style="fill:#FFAB97;" d="M169.625,296.03c16.234,0,29.969,10.881,34.314,25.729c2.131-1.866,3.485-4.598,3.485-7.646v-28.689 h-65.603v23.919C148.38,301.23,158.404,296.03,169.625,296.03z"/> <path style="fill:#C03A3A;" d="M264.234,7.355C264.154,3.27,260.82,0,256.735,0H82.512c-4.085,0-7.419,3.27-7.499,7.355 c-0.008,0.404-0.734,41.143,4.075,94.791c4.418,49.296,14.557,119.915,37.734,177.359v34.608c0,13.404,10.531,24.392,23.755,25.132 c0.033,0.003,58.062,0.003,58.098-0.001c13.222-0.741,23.75-11.728,23.75-25.131v-34.608 c23.178-57.444,33.316-128.063,37.734-177.359C264.969,48.498,264.242,7.759,264.234,7.355z M206.677,25V15h14.552v10v14.273 h-14.552V25z M177.124,25V15h14.553v10v14.273h-14.553V25z M147.571,25V15h14.553v10v14.273h-14.553V25z M118.019,25V15h14.553v10 v14.273h-14.553V25z M89.977,15h13.042v10v14.273h-2.872h-9.745C90.08,28.78,89.99,20.466,89.977,15z M135.31,321.762 c-2.132-1.866-3.487-4.599-3.487-7.648v-28.689h10h65.603v28.689c0,3.049-1.354,5.78-3.485,7.646 c-4.346-14.849-18.08-25.729-34.314-25.729c-11.221,0-21.245,5.2-27.803,13.314C138.892,312.969,136.652,317.175,135.31,321.762z M150.293,324.287c3.016-7.744,10.533-13.257,19.332-13.257c8.799,0,16.316,5.513,19.332,13.257H150.293z M209.9,270.425h-70.554 h-10c-27.615-70.706-35.925-161.887-38.375-216.151h10h147.309C245.834,108.528,237.529,199.689,209.9,270.425z M249.18,25 c-0.063,4.132-0.166,8.917-0.33,14.273h-12.621V25V15h13.044C249.266,17.675,249.241,21.038,249.18,25z"/> <path style="fill:#FF8269;" d="M100.972,54.273c2.45,54.265,10.76,145.445,38.375,216.151H209.9 c27.629-70.736,35.934-161.896,38.381-216.151H100.972z M212.824,156.384h-86.401c-4.143,0-7.5-3.357-7.5-7.5V97.828 c0-4.142,3.357-7.5,7.5-7.5h86.401c4.143,0,7.5,3.358,7.5,7.5v51.056C220.324,153.026,216.967,156.384,212.824,156.384z"/> <rect x="143.923" y="112.328" style="fill:#FFAB97;" width="61.401" height="29.056"/> <path style="fill:#C03A3A;" d="M212.824,90.328h-86.401c-4.143,0-7.5,3.358-7.5,7.5v51.056c0,4.143,3.357,7.5,7.5,7.5h86.401 c4.143,0,7.5-3.357,7.5-7.5V97.828C220.324,93.687,216.967,90.328,212.824,90.328z M133.923,105.328h71.401v7v29.056h-61.401h-10 V105.328z"/> </g> </g>
</svg>