<?xml version="1.0" encoding="iso-8859-1"?>
<!-- Uploaded to: SVG Repo, www.svgrepo.com, Generator: SVG Repo Mixer Tools -->
<svg version="1.1" id="Layer_1" xmlns="http://www.w3.org/2000/svg" xmlns:xlink="http://www.w3.org/1999/xlink" 
	 viewBox="0 0 512.002 512.002" xml:space="preserve">
<rect x="226.26" y="45.588" style="fill:#FCCFEF;" width="34.826" height="56.734"/>
<path style="fill:#FFA6BB;" d="M267.476,83.949h-47.609c-14.33,0-25.946,11.616-25.946,25.946v38.242h99.501v-38.242
	C293.422,95.565,281.806,83.949,267.476,83.949z"/>
<path style="opacity:0.1;enable-background:new    ;" d="M242.765,83.949h-22.898c-14.33,0-25.946,11.616-25.946,25.946v38.242
	h22.898v-38.242C216.819,95.565,228.435,83.949,242.765,83.949z"/>
<path style="fill:#FF8081;" d="M309.163,118.995H178.18c-21.112,0-38.225,17.114-38.225,38.225v178.8
	c0,21.112,17.114,38.225,38.225,38.225h130.983c21.112,0,38.225-17.114,38.225-38.225v-178.8
	C347.389,136.109,330.275,118.995,309.163,118.995z"/>
<path style="opacity:0.1;enable-background:new    ;" d="M178.464,336.021v-178.8c0-21.112,17.114-38.225,38.225-38.225H178.18
	c-21.112,0-38.225,17.114-38.225,38.225v178.8c0,21.112,17.114,38.225,38.225,38.225h38.509
	C195.578,374.245,178.464,357.132,178.464,336.021z"/>
<path style="fill:#FF8081;" d="M175.402,73.325c-7.145,0-12.937-6.99-12.937-15.612c0-21.854,11.586-34.901,30.992-34.901h47.112
	c25.356,0,33.066-6.505,34.31-7.753c3.374-6.438,10.24-9.09,16.179-5.903c6.53,3.501,9.47,12.728,6.568,20.607
	C294.94,37.062,284,54.037,240.568,54.037h-47.112c-2.859,0-4.3,0.45-4.889,0.706c-0.099,0.481-0.23,1.41-0.23,2.971
	C188.339,66.335,182.547,73.325,175.402,73.325z"/>
<path style="fill:#FCCFEF;" d="M138.758,165.709h-36.269c-8.87,0-16.059,7.19-16.059,16.059v66.687h68.389v-66.687
	C154.818,172.899,147.628,165.709,138.758,165.709z"/>
<path style="opacity:0.1;enable-background:new    ;" d="M118.101,165.709h-15.612c-8.87,0-16.059,7.19-16.059,16.059v66.687h15.612
	v-66.687C102.041,172.899,109.231,165.709,118.101,165.709z"/>
<path style="fill:#D997C6;" d="M140.902,226.652h-40.557c-14.183,0-25.682,11.498-25.682,25.682v35.046h91.92v-35.046
	C166.584,238.15,155.086,226.652,140.902,226.652z"/>
<path style="opacity:0.1;enable-background:new    ;" d="M115.957,226.652h-15.612c-14.183,0-25.682,11.498-25.682,25.682v35.045
	h15.612v-35.045C90.275,238.15,101.773,226.652,115.957,226.652z"/>
<path style="fill:#BA82AA;" d="M190.718,310.868c-1.735-26.182-23.401-46.565-49.64-46.565H100.17
	c-26.24,0-47.905,20.384-49.64,46.565c-0.789,11.895-1.201,24.162-1.201,36.699c0,37.207,3.629,72.037,9.949,101.864
	c4.125,19.469,21.235,33.44,41.136,33.44h40.419c19.901,0,37.012-13.971,41.136-33.44c6.32-29.828,9.949-64.656,9.949-101.864
	C191.919,335.03,191.505,322.763,190.718,310.868z"/>
<path style="opacity:0.1;enable-background:new    ;" d="M84.257,449.43c-6.32-29.827-9.949-64.656-9.949-101.864
	c0-12.536,0.412-24.803,1.201-36.698c1.735-26.182,23.401-46.565,49.64-46.565h-24.979c-26.24,0-47.905,20.383-49.64,46.565
	c-0.789,11.895-1.201,24.162-1.201,36.698c0,37.207,3.629,72.037,9.949,101.864c4.125,19.469,21.235,33.44,41.136,33.44h24.979
	C105.492,482.87,88.381,468.9,84.257,449.43z"/>
<path style="fill:#BA82AA;" d="M437.059,182.36h-86.17c-15.433,0-27.36,12.524-25.403,26.672l30.091,217.435h76.79l30.091-217.435
	C464.42,194.884,452.492,182.36,437.059,182.36z"/>
<path style="opacity:0.1;enable-background:new    ;" d="M382.114,182.36H350.89c-15.433,0-27.36,12.524-25.402,26.672
	l30.091,217.435h31.224l-30.092-217.435C354.753,194.884,366.681,182.36,382.114,182.36z"/>
<rect x="355.579" y="405.89" style="fill:#FCCFEF;" width="79.944" height="85.543"/>
<path style="fill:#FFA6BB;" d="M177.626,397.94c-0.629,5.747-0.953,11.616-0.953,17.58c0,34.412,10.8,65.652,28.373,88.673H352.33
	c17.573-23.02,28.373-54.261,28.373-88.673c0-5.965-0.325-11.834-0.953-17.58c-0.112-1.028-0.266-2.042-0.44-3.048H178.067
	C177.893,395.898,177.739,396.913,177.626,397.94z"/>
<path style="fill:#FCCFEF;" d="M330.094,353.6H227.282c-24.386,0-45.128,17.555-49.216,41.292h201.243
	C375.222,371.155,354.48,353.6,330.094,353.6z"/>
<path style="opacity:0.1;enable-background:new    ;" d="M210.932,397.94c0.112-1.028,0.266-2.042,0.44-3.048
	c4.088-23.736,24.83-41.292,49.216-41.292h-33.305c-24.386,0-45.128,17.555-49.216,41.292c-0.174,1.006-0.328,2.02-0.44,3.048
	c-0.629,5.747-0.953,11.616-0.953,17.58c0,34.412,10.8,65.652,28.373,88.673h33.305c-17.573-23.02-28.373-54.261-28.373-88.673
	C209.978,409.556,210.303,403.687,210.932,397.94z"/>
<circle cx="120.546" cy="196.679" r="10.125"/>
<path d="M447.48,259.779c-0.591,4.27,2.392,8.212,6.662,8.803c4.275,0.591,8.212-2.393,8.803-6.662l7.172-51.817
	c1.206-8.716-1.385-17.252-7.296-24.037c-6.373-7.315-15.79-11.51-25.839-11.51h-81.865v-17.333
	c0-25.382-20.649-46.031-46.031-46.031h-7.935v-1.295c0-18.137-14.381-32.971-32.338-33.716V58.93
	c7.515-1.755,14.051-4.292,19.537-7.62c10.202-6.189,14.618-13.668,16.527-18.851c4.261-11.572-0.222-24.829-10.204-30.183
	C291.856,0.766,288.849,0,285.736,0c-6.77,0-13.134,3.755-16.974,9.91c-1.938,1.268-9.362,5.096-28.27,5.096h-47.113
	c-23.932,0-38.798,16.364-38.798,42.707c0,12.912,9.305,23.418,20.743,23.418c10.19,0,18.688-8.338,20.42-19.289h22.63v14.337
	c-17.957,0.745-32.337,15.58-32.337,33.716v1.295h-7.936c-25.382,0-46.031,20.649-46.031,46.031v0.683H102.41
	c-13.16,0-23.867,10.706-23.867,23.865v45.11c-7.192,6.147-11.765,15.275-11.765,25.455v14.871
	c-13.638,9.745-22.934,25.302-24.116,43.147c-0.521,7.849-0.879,16.147-1.065,24.664c-0.094,4.31,3.323,7.88,7.633,7.975
	c4.304,0.104,7.88-3.323,7.975-7.633c0.181-8.287,0.529-16.352,1.035-23.972c1.044-15.759,10.756-29.072,24.258-35.371
	c0.095-0.044,0.187-0.09,0.282-0.132c5.401-2.453,11.376-3.772,17.312-3.772h40.906c5.947,0,11.897,1.317,17.312,3.772
	c0.095,0.043,0.187,0.088,0.282,0.132c13.654,6.33,23.261,20.338,24.258,35.371c0.786,11.853,1.184,24.026,1.184,36.182
	c0,5.747-0.156,11.487-0.278,17.231c-0.006,0.202-0.014,0.404-0.02,0.606c-0.067,2.027-5.716,7.632-6.895,9.733
	c-1.936,3.446-3.505,7.081-4.668,10.858c-2.641,8.578-3.203,17.629-3.358,26.551c-0.231,13.362,1.102,26.779,4.05,39.817
	c0.012,0.056,0.023,0.112,0.035,0.169c-4.929,13.558-17.608,22.534-32.147,22.534h-40.417c-16.067,0-30.155-11.461-33.5-27.251
	c-5.306-25.045-8.49-52.52-9.463-81.663c-0.144-4.309-3.771-7.69-8.062-7.542c-4.309,0.144-7.685,3.753-7.542,8.062
	c1.003,30.054,4.297,58.443,9.793,84.378c4.864,22.962,25.377,39.628,48.773,39.628h40.418c15.197,0,28.996-6.727,38.228-17.816
	c4.927,13.128,11.566,25.31,19.78,36.071c1.476,1.935,3.771,3.069,6.204,3.069H352.25c2.433,0,4.728-1.134,6.204-3.069
	c2.375-3.112,4.619-6.345,6.728-9.683h67.107c4.311,0,7.806-3.495,7.806-7.806v-64.437l18.526-133.862
	c0.591-4.27-2.392-8.212-6.662-8.803c-4.281-0.592-8.212,2.392-8.803,6.662l-14.821,107.084h-40.801
	c-0.529-5.127-1.654-10.19-3.465-15.019c-5.558-14.818-16.936-26.507-31.209-32.61c0,0-0.284-2.051-0.284-2.055
	c0,0-19.437-140.441-19.437-140.443c-0.07-0.504-0.109-1.006-0.125-1.507c-0.001-0.026-0.003-0.053-0.004-0.08
	c-0.145-5.048,2.567-9.601,6.514-12.588c3.168-2.396,7.33-3.619,11.284-3.619h86.17c5.533,0,10.661,2.243,14.067,6.154
	c2.902,3.331,4.181,7.466,3.603,11.642L447.48,259.779z M193.379,46.23c-3.601,0-8.069,0.413-10.658,3.254
	c-2.031,2.227-2.267,5.359-2.267,8.23c0,4.6-2.704,7.806-5.131,7.806s-5.131-3.206-5.131-7.806
	c0-23.575,14.527-27.095,23.186-27.095h47.113c7.277,0,14.844-0.458,22.068-2.025c6.225-1.351,13.199-3.349,17.783-8.035
	c1.672-1.709,2.481-4.946,5.393-4.946c0.517,0,1.026,0.138,1.557,0.423c2.757,1.478,4.597,6.509,2.932,11.03
	c-1.339,3.638-7.153,13.934-30.302,17.732c-0.056,0.008-0.111,0.009-0.168,0.018c-6.359,1.041-12.824,1.414-19.263,1.414H226.18
	h-32.801V46.23z M253.2,61.328v14.815h-19.214c0,0,0-14.298,0-14.301C234.006,62.183,253.2,61.488,253.2,61.328z M201.649,109.895
	c0-10.002,8.137-18.14,18.14-18.14h6.392h34.826h6.393c10.002,0,18.14,8.138,18.14,18.14v1.295H201.65v-1.295H201.649z
	 M94.157,181.769c0-4.551,3.703-8.254,8.255-8.254h36.27c0.175,0,0.346,0.016,0.517,0.026c0.035,0.003,0.069,0.01,0.103,0.012
	c9.147,0.67,7.633,11.317,7.633,17.724c0,7.771,0,15.541,0,23.312c0,1.606,0,3.212,0,4.818c-2.014-0.373-4.063-0.56-6.111-0.56
	c0,0-40.544,0-40.557,0c-1.892,0-4.101,0.55-6.086,0.487c-0.608-12.427-0.025-25.063-0.025-37.527
	C94.157,181.794,94.157,181.781,94.157,181.769z M158.698,259.29c-0.003-2.266-15.496-2.794-17.701-2.794h-40.905
	c-5.99,0-12.001,0.948-17.701,2.795c0,0,0-6.954,0-6.958c0-9.651,8.224-17.876,17.876-17.876h40.557
	c5.867,0,11.539,3.045,14.823,7.895C159.076,247.419,158.698,253.46,158.698,259.29z M377.222,476.271
	c0.117-0.386,0.21-0.692,0.276-0.879c2.714-7.664,5.13-15.457,6.905-23.396c2.801-12.538,4.167-25.449,4.017-38.297h36.066v12.769
	v57.168c0,0-50.757,0-50.777,0C375.053,483.636,376.535,478.55,377.222,476.271z M340.491,362.755
	c12.5,3.258,23.234,12.19,28.353,24.332h-36.864c-4.311,0-7.806,3.495-7.806,7.806s3.495,7.806,7.806,7.806h40.302
	c0.027,0.331,0.052,0.666,0.077,1c2.433,32.343-5.068,66.058-24.048,92.69H208.909c-9.567-13.423-16.501-29.172-20.507-46.172
	c-3.651-15.495-4.786-31.657-3.467-47.519h115.822c4.311,0,7.806-3.495,7.806-7.806s-3.495-7.806-7.806-7.806h-112.4
	c2.024-4.791,4.943-9.185,8.66-12.982c7.792-7.96,18.919-12.699,30.186-12.699c0,0,102.808,0,102.812,0
	C333.587,361.406,337.103,361.871,340.491,362.755z M339.504,176.408c0-0.048-9.313,4.829-10.196,5.533
	c-15.317,12.215-11.369,30.054-9.038,46.897l16.237,117.324c-0.052-0.006-0.104-0.007-0.156-0.014
	c-0.89-0.097-1.786-0.173-2.686-0.229c-0.198-0.012-0.394-0.029-0.592-0.04c-1.014-0.053-2.032-0.086-3.057-0.086H227.204
	c-4.947,0-9.893,0.643-14.679,1.888c-2.331,0.606-4.626,1.355-6.864,2.245c-0.817,0.325-6.031,2.135-6.039,2.82
	c0.017-1.736,0.024-3.464,0.024-5.181c0-12.5-0.41-25.021-1.219-37.215c-0.589-8.889-3.309-17.657-7.803-25.345
	c-2.04-3.491-4.446-6.766-7.169-9.755c-1.408-1.546-2.901-3.015-4.469-4.397c-0.586-0.517-4.675-3.157-4.675-3.709
	c0,0,0-14.809,0-14.811c0-9.632-4.35-19.177-11.765-25.483v-45.081c0-0.559-0.026-1.111-0.065-1.659
	c-0.008-0.113-0.017-0.228-0.026-0.341c-0.76-9.108-6.653-16.777-14.774-20.097v-2.451c0-16.773,13.646-30.419,30.419-30.419h15.742
	h99.501h15.741c16.773,0,30.419,13.646,30.419,30.419C339.504,157.221,339.504,176.407,339.504,176.408z"/>
</svg>