<?xml version="1.0" encoding="utf-8"?>
<!-- Uploaded to: SVG Repo, www.svgrepo.com, Generator: SVG Repo Mixer Tools -->
<svg width="800px" height="800px" viewBox="0 0 1024 1024" class="icon"  version="1.1" xmlns="http://www.w3.org/2000/svg"><path d="M847.015278 520.864799c-1.488729 15.764762-69.21772 114.978226-83.169181 114.978227L403.560305 360.867359c-19.175324-5.808501 4.525573-24.104308 13.859312-71.974019l-9.767866-139.10506c0-15.834387 22.007391-50.137617 56.619835-42.810693 186.96146 39.577263 353.559889 142.592414 353.559889 142.592413 20.565761 10.56752 29.18278 11.434751 29.182779 27.269138 0.001024 0 10.552162 132.308509 0.001024 244.025661z" fill="#FFFFFF" /><path d="M763.846097 646.401331h-3.567216L398.515622 370.296319c-5.381541-2.036508-9.134081-5.283248-11.169565-9.679812-4.00032-8.639544-0.12389-17.57192 5.242293-29.937383 4.433423-10.216328 10.469227-24.118643 14.20129-42.463596l-9.669573-137.689027c-0.025597-14.07228 9.669573-31.60734 23.035372-42.437999 13.586958-11.020078 29.592334-14.958965 46.303166-11.442942C653.063753 136.150127 821.700738 239.551282 823.380933 240.592574c2.706129 1.355624 5.799286 2.840258 8.566849 4.170285 14.313917 6.881533 25.623754 12.319388 25.623754 32.077303 0.071672 0.494537 10.469227 133.673349-0.046075 245.021901-1.55221 16.427216-70.350137 124.539268-93.679364 124.539268z m-356.619258-295.454397l1.221495 0.370646L764.923225 623.385413c18.144272-15.293775 69.045707-90.735694 71.597229-103.647912 10.314621-109.457437 0.077815-240.744109-0.030717-242.058777-0.030717-7.077095-0.030717-7.319756-13.690371-13.885933-2.917049-1.401699-6.175052-2.974387-9.793463-4.829667-2.376438-1.433439-168.013438-102.941431-350.917241-141.657606-10.40677-2.216712-20.035388 0.205801-28.639096 7.185627-9.94295 8.056954-15.241557 19.870542-15.241557 25.298159l9.840562 139.750108-0.268258 1.370982c-4.144688 21.268146-10.892092 36.818916-15.819029 48.174828-1.775417 4.078135-3.883597 8.933399-4.734445 11.861712z" fill="#4D5152" /><path d="M817.831475 495.635241c0 13.610508-41.831859 92.042171-55.442367 92.042171L391.685283 360.345177c-18.706385-4.992465 4.414994-20.719343 13.52143-61.865199V155.436031c0-13.610508 11.033388-24.643896 24.643896-24.643896l363.33697 147.866447c14.844289 5.026253 24.643896 11.033388 24.643896 24.643896V495.635241z" fill="#FFFFFF" /><path d="M762.387061 598.231622h-2.979507L387.351177 370.07004c-5.835122-1.89214-9.829299-5.133761-11.881166-9.654215-3.762779-8.288352 0.319452-16.576703 5.490073-27.071528 4.283936-8.690739 10.107796-20.52071 13.690371-36.045882V155.433983c0-19.411842 15.788312-35.200154 35.200154-35.200153h2.067224l365.24754 148.647671c9.73203 3.273361 31.221335 10.551138 31.221336 34.422001V495.635241c-0.001024 12.618363-41.433567 102.596381-65.999648 102.596381zM396.123826 350.683795l1.082247 0.659383 365.566992 224.187883c12.927576-12.329627 43.396356-68.220455 44.499081-80.01971V303.302478c0-4.948438-1.289072-9.164798-17.473627-14.643608L428.061881 141.459996c-6.927608 0.881565-12.298911 6.808837-12.29891 13.973987l-0.247781 145.328236c-4.107828 18.550754-10.763083 32.050682-15.618346 41.911722-1.298287 2.643672-2.803398 5.69997-3.773018 8.009854z" fill="#4D5152" /><path d="M554.373494 262.729998l12.442255 17.062025-90.292352 65.84197-12.442254-17.062025zM519.367879 211.763035l12.44123 17.062025-90.292351 65.841969-12.44123-17.062025z" fill="#67DDE0" /><path d="M541.88926 903.659686c-10.739533 8.277089-21.317292 15.495481-33.426784 9.394148-102.747916-51.770714-323.033772-201.439199-323.033772-201.439199-11.824852-6.636825-20.624122-80.485578-13.988321-92.310429l6.293823-3.593838c6.635801-11.824852 208.454861-168.492617 220.279712-161.856816l358.554402 115.872079c11.824852 6.635801 10.326907 92.086198 3.691107 103.910026-0.001024 0.001024-144.619707 173.183036-218.370167 230.024029z" fill="#FFFFFF" /><path d="M517.550482 925.886189c-4.396564 0-9.030669-0.984978-13.834738-3.402371-102.178636-51.489145-322.010911-200.636473-324.222503-202.136465-2.473707-1.345385-12.319388-6.876414-18.443247-51.509623-1.742653-12.711536-5.113283-43.478266 1.18566-54.705169l1.433439-2.546403 7.294159-4.165165c17.206393-18.942902 107.632873-87.256531 108.606588-87.988609 104.415825-78.798215 115.776857-78.83917 122.62665-75.323148L761.732798 560.520902c4.401683 2.468588 13.561361 7.608492 14.15931 59.091493 0.051194 4.788712 0.345049 47.123298-6.427952 59.189787l-1.102724 1.603405c-5.932392 7.107812-146.208777 174.723983-220.027837 231.615147-7.190747 5.546387-17.994785 13.865455-30.783113 13.865455zM191.46246 702.997616c15.385925 10.381173 223.888908 151.32206 321.752892 200.631354 5.350825 2.701009 10.355576 0.830371 22.231622-8.329308 69.055946-53.220535 203.703009-212.935383 215.842194-227.393667 4.747756-12.407442 5.113283-75.55045-0.861088-89.070857L396.711536 464.527557c-25.277681 9.345001-196.811237 139.936455-210.187275 156.997456l-1.433439 2.556642-4.979155 2.427632c-2.514662 14.021086 4.031037 67.627626 11.350793 76.488329z" fill="#4D5152" /><path d="M538.742861 834.278145c-6.635801 11.824852-21.601933 16.030973-33.426784 9.394148l-321.336171-198.740237c-11.824852-6.636825-16.030973-21.601933-9.394148-33.426785l190.000352-238.62057c6.635801-11.824852 21.601933-16.030973 33.426785-9.394148l349.704961 196.262435c11.824852 6.635801 16.030973 21.601933 9.394147 33.426784L538.742861 834.278145z" fill="#FDF3E1" /><path d="M517.282224 857.387237c-5.938535 0-11.809493-1.525589-17.133697-4.510215L178.426352 653.91153c-7.793815-4.360728-13.69549-11.860688-16.231654-20.891356s-1.406818-18.504679 3.185307-26.685523l0.948118-1.406819 189.518102-238.012383c4.618747-7.763099 11.922121-13.36068 20.648696-15.813908 9.01531-2.541283 18.49956-1.411938 26.685523 3.185307L752.882333 550.546211c16.880797 9.47913 22.906362 30.917241 13.437471 47.798038l-1.381221 1.922857-217.64628 240.295647c-4.628986 7.598253-11.850449 13.077063-20.458252 15.499576a35.260563 35.260563 0 0 1-9.551827 1.324908zM183.446462 617.324012a13.889004 13.889004 0 0 0-0.92764 9.983906 13.926888 13.926888 0 0 0 6.623514 8.417361l321.727295 198.966516c2.891452 1.603404 6.669589 2.056986 10.252163 1.04641a13.930984 13.930984 0 0 0 8.412242-6.623514l1.381221-1.922856 217.460957-240.088823c3.082919-6.57232 0.603068-14.5361-5.830003-18.144271L392.846369 372.698354a13.952485 13.952485 0 0 0-10.639192-1.27269 13.930984 13.930984 0 0 0-8.412242 6.623514l-0.948118 1.411938L183.446462 617.324012z" fill="#4D5152" /><path d="M396.738713 499.538078a61.333803 77.811189 47.248 1 0 114.273328-105.640575 61.333803 77.811189 47.248 1 0-114.273328 105.640575Z" fill="#FFB957" /><path d="M437.277873 524.057274c-18.540515 0-34.824388-6.679828-46.345145-19.143584-12.803686-13.850097-18.025501-32.999824-14.711185-53.932136 3.205785-20.231974 14.092758-39.803542 30.654103-55.112675 34.705617-32.087542 84.034364-35.39674 109.962212-7.345354 25.917609 28.041147 18.762699 76.957269-15.942918 109.049931-16.566465 15.309133-36.932568 24.628538-57.349865 26.237061-2.112275 0.163822-4.205097 0.246756-6.267202 0.246757zM470.386229 385.188731c-17.473627 0-36.849633 7.603372-52.756716 22.309437-13.963748 12.907098-23.113187 29.231926-25.768121 45.963236-2.541283 16.036092 1.262451 30.494377 10.700625 40.700466 9.438175 10.216328 23.530933 15.159646 39.742109 13.860336 16.885917-1.330027 33.881389-9.169917 47.840018-22.077016 28.298143-26.164366 35.060905-65.045387 15.066472-86.668821-8.753196-9.475035-21.216952-14.087638-34.824387-14.087638z" fill="#4D5152" /><path d="M456.706097 487.537332c-1.020814 0-2.062105-0.077815-3.118755-0.24778l2.495209-15.638825c5.741949 0.995217 14.571936-12.164782 18.602972-21.540499L489.246196 456.336474c-2.3191 5.427616-14.28832 31.200858-32.540099 31.200858z" fill="#4D5152" /><path d="M409.052426 465.007759a7.323852 7.323852 0 0 1-10.340218-0.594877c2.391796 2.683603-4.763115-1.148799-1.179516-9.743293 0 0 6.562081-15.365447 11.953862-22.763019 14.906746-20.452109 19.063721-23.108068 19.06372-23.108067a7.323852 7.323852 0 0 1 9.745341 10.935095s-8.34057 9.660358-16.752812 21.409442c-7.728286 10.792775-12.490377 23.864719-12.490377 23.864719z" fill="#FCFDFD" /><path d="M587.115737 655.482445a80.622778 102.283072 7.753 1 0 27.596548-202.696172 80.622778 102.283072 7.753 1 0-27.596548 202.696172Z" fill="#FFB957" /><path d="M595.760987 664.060281c-3.216024 0-6.44331-0.21604-9.690051-0.659382-48.37551-6.587678-81.061001-60.93244-72.864799-121.14304 8.201321-60.2106 54.23623-103.863951 102.601501-97.245556 48.37551 6.592798 81.061001 60.937559 72.859679 121.14304-7.645352 56.163182-48.221927 97.904939-92.90633 97.904938z m10.272641-203.878093c-36.849633 0-70.566177 35.973187-77.138496 84.210472-7.015662 51.560817 19.586926 97.905963 59.308557 103.31822 39.82402 5.468572 77.756923-32.133617 84.771562-83.689314 7.020782-51.560817-19.581807-97.905963-59.303438-103.318221a56.037244 56.037244 0 0 0-7.638185-0.521157z" fill="#4D5152" /><path d="M633.290479 593.463388l-8.020093-13.659654c7.999616-4.695538 5.917033-26.787912 1.989409-40.241765l15.195482-4.459021c1.355624 4.623866 12.650103 45.551634-9.164798 58.36044z" fill="#4D5152" /><path d="M570.747468 610.239749a9.62657 9.62657 0 0 1-10.985265 8.041595c4.669941 0.722863-5.791095 2.816709-9.34193-8.897563 0 0-6.189387-21.072584-6.904059-33.084806-1.977123-33.207673 0.01843-39.37863 0.01843-39.37863a9.62657 9.62657 0 0 1 10.985266-8.041595c5.253556 0.812965 8.85456 5.73171 8.041595 10.985265 0 0-0.383957 16.772266 0.905115 35.723359 1.182588 17.41117 7.280849 34.652375 7.280848 34.652375z" fill="#FCFDFD" /><path d="M464.198158 807.41868a84.764394 107.536628 15.005 1 0 55.683183-207.739953 84.764394 107.536628 15.005 1 0-55.683183 207.739953Z" fill="#FFB957" /><path d="M481.659206 817.593933a75.282192 75.282192 0 0 1-19.515254-2.561761c-24.263011-6.504743-43.78236-24.422737-54.968308-50.463212-10.90745-25.391332-12.562049-55.591854-4.669941-85.050058 16.484554-61.488409 70.019422-100.74622 119.410626-87.524789 24.263011 6.504743 43.783384 24.422737 54.968308 50.463212 10.90745 25.391332 12.562049 55.591854 4.669941 85.050058-14.324156 53.43248-56.658742 90.08655-99.895372 90.08655z m20.577024-212.346649c-36.164654 0-72.003712 31.999488-84.431632 78.37535-6.978802 26.030237-5.587342 52.561153 3.922505 74.699602 9.226231 21.484186 25.041163 36.19537 44.519557 41.412066 40.938007 10.979122 85.792375-23.272913 100.009023-76.328603 6.978802-26.030237 5.587342-52.561153-3.922504-74.699602-9.226231-21.484186-25.041163-36.19537-44.519558-41.412066a59.975107 59.975107 0 0 0-15.577391-2.046747z" fill="#4D5152" /><path d="M520.406099 748.368023l-6.226247-14.556578c10.097557-4.319772 9.48425-30.747276 7.649447-42.139024l15.638825-2.515687c0.798631 4.975059 7.102692 48.872094-17.062025 59.211289z" fill="#4D5152" /><path d="M453.111236 757.950566c-1.545043 5.372326-7.151839 8.474699-12.524166 6.929655 4.774377 1.37303-6.413618 2.169613-8.563777-10.518374 0 0-3.66039-22.798855-2.812613-35.422336 2.34265-34.897084 5.242293-41.06804 5.242293-41.068041 1.545043-5.372326 7.151839-8.474699 12.524166-6.929655 5.372326 1.545043 8.474699 7.151839 6.929655 12.524165 0 0-2.625242 17.441887-3.794519 37.377957-1.07508 18.315261 2.99896 37.106628 2.998961 37.106629z" fill="#FCFDFD" /><path d="M300.960301 713.927834a106.753356 135.432384 24.136 1 0 110.757668-247.185075 106.753356 135.432384 24.136 1 0-110.757668 247.185075Z" fill="#FFB957" /><path d="M336.624826 729.379046c-13.474331 0-26.607708-2.741965-38.911738-8.252516-28.282784-12.669557-48.565953-38.364983-57.112323-72.354904-8.371286-33.303918-4.443662-70.720783 11.072296-105.348585 32.32406-72.137841 105.565649-109.782008 163.255443-83.942215 57.700034 25.855152 78.354872 105.570768 46.046171 177.708609-15.514934 34.628826-40.819236 62.468268-71.246037 78.390708-17.542227 9.175036-35.608684 13.798903-53.103812 13.798903z m39.453373-262.26925c-42.370423 0-87.178716 31.948294-109.951973 82.787272-14.06716 31.39642-17.680452 65.14368-10.165134 95.01451 7.335114 29.184827 24.463692 51.117475 48.226023 61.761787 23.762331 10.639192 51.524981 8.819748 78.200266-5.123523 27.288592-14.2832 50.065945-39.438015 64.133105-70.834434 28.741485-64.168941 11.665126-134.497576-38.066009-156.781417-10.329979-4.627962-21.273265-6.824196-32.376278-6.824195z" fill="#4D5152" /><path d="M382.1396 649.761723l-3.835474-15.360328c14.726543-3.679844 19.494777-37.205945 19.494777-52.865247h15.834386c0.001024 6.180172-0.880541 60.576127-31.493689 68.225575z" fill="#4D5152" /><path d="M297.048587 650.218376c-2.994865 6.370614-10.586974 9.108484-16.957589 6.113619 5.662086 2.661078-8.40917 1.416033-8.546371-14.791048 0 0 0.004096-29.081415 3.580527-44.608635 9.886637-42.925368 14.725519-50.017822 14.725519-50.017822 2.994865-6.371638 10.586974-9.108484 16.957588-6.11362 6.370614 2.994865 9.108484 10.586974 6.11362 16.957589 0 0-6.750476 21.16371-12.188331 45.719551-4.994513 22.560289-3.684963 46.740365-3.684963 46.740366z" fill="#FCFDFD" /></svg>