<svg xmlns="http://www.w3.org/2000/svg" xmlns:xlink="http://www.w3.org/1999/xlink" version="1.1" x="0px" y="0px" viewBox="0 0 1024 1280" style="enable-background:new 0 0 1024 1024;" xml:space="preserve"><g><g><path d="M801.46,826.17c-0.02,0-0.05,0-0.07,0c-3.63-0.03-6.79-2.5-7.7-6.01l-5.71-22.02c-4.71-18.2-18.95-32.44-37.15-37.15    l-22.02-5.71c-3.56-0.96-6.01-4.15-6.01-7.77s2.44-6.81,5.94-7.75l22.08-5.73c18.2-4.71,32.44-18.95,37.15-37.15l5.71-22.02    c0.96-3.56,4.14-6.01,7.77-6.01s6.81,2.45,7.75,5.95l5.73,22.08c4.71,18.2,18.95,32.44,37.15,37.15l22.02,5.71    c3.56,0.96,6.01,4.15,6.01,7.77s-2.44,6.81-5.94,7.75l-22.08,5.73c-18.2,4.71-32.44,18.95-37.15,37.15l-5.71,22.02    C808.27,823.73,805.09,826.17,801.46,826.17z M758.19,747.51c20.55,6.57,36.7,22.72,43.27,43.27    c6.57-20.55,22.72-36.7,43.27-43.27c-20.55-6.57-36.7-22.72-43.27-43.27C794.89,724.79,778.74,740.94,758.19,747.51z"/></g><g><path d="M179.27,393.85c-0.06,0-0.11,0-0.17,0c-3.46-0.08-6.44-2.45-7.29-5.79l-2.23-8.61c-1.44-5.53-5.76-9.86-11.28-11.28    l-8.61-2.24c-3.42-0.87-5.8-3.93-5.8-7.47s2.38-6.59,5.8-7.47l8.61-2.23c5.53-1.44,9.86-5.76,11.28-11.28l2.24-8.61    c0.87-3.42,3.93-5.8,7.47-5.8s6.59,2.38,7.47,5.8l2.23,8.61c1.44,5.53,5.76,9.86,11.28,11.28l8.61,2.24    c3.42,0.87,5.8,3.93,5.8,7.47s-2.38,6.59-5.8,7.47l-8.61,2.23c-5.53,1.44-9.86,5.76-11.28,11.28l-2.29,8.81    C185.73,391.57,182.7,393.85,179.27,393.85z M172.31,358.46c2.68,1.93,5.02,4.28,6.96,6.96c1.93-2.68,4.28-5.02,6.96-6.96    c-2.68-1.93-5.02-4.28-6.96-6.96C177.34,354.18,174.99,356.53,172.31,358.46z"/></g><g><path d="M208.58,813.63c-20.3,0-36.81-16.51-36.81-36.81c0-20.3,16.51-36.81,36.81-36.81s36.81,16.51,36.81,36.81    C245.39,797.12,228.88,813.63,208.58,813.63z M208.58,755.01c-12.03,0-21.81,9.78-21.81,21.81c0,12.03,9.78,21.81,21.81,21.81    s21.81-9.78,21.81-21.81C230.39,764.79,220.61,755.01,208.58,755.01z"/></g><g><path d="M854.88,353.74c-11.11,0-20.15-9.04-20.15-20.15s9.04-20.15,20.15-20.15c11.11,0,20.15,9.04,20.15,20.15    S865.99,353.74,854.88,353.74z M854.88,328.44c-2.84,0-5.15,2.31-5.15,5.15s2.31,5.15,5.15,5.15s5.15-2.31,5.15-5.15    S857.72,328.44,854.88,328.44z"/></g><g><g><path d="M509.17,771.2c-28.95,0-52.51-23.59-52.51-52.59c0-5.77,0.5-11.27,0.94-16.13c0.75-8.24,1.45-16.02-1.05-18.76     c-1.59-1.74-5.68-2.7-11.5-2.7h-51.87v-15h51.87c10.52,0,17.91,2.48,22.57,7.59c6.96,7.62,5.97,18.6,4.92,30.23     c-0.43,4.76-0.88,9.69-0.88,14.77c0,20.73,16.83,37.59,37.51,37.59c20.69,0,37.52-16.86,37.52-37.59     c0-5.09-0.45-10.01-0.88-14.78c-1.05-11.63-2.05-22.61,4.92-30.23c4.66-5.1,12.05-7.59,22.57-7.59h51.87v15H573.3     c-5.82,0-9.9,0.96-11.5,2.7c-2.5,2.74-1.8,10.52-1.05,18.76c0.44,4.86,0.94,10.36,0.94,16.13     C561.69,747.61,538.13,771.2,509.17,771.2z"/></g><g><path d="M592.94,928.5H425.41c-21.91,0-39.74-17.83-39.74-39.74V384.29c0-13.67,11.12-24.79,24.79-24.79h197.43     c13.67,0,24.79,11.12,24.79,24.79v504.47C632.68,910.67,614.85,928.5,592.94,928.5z M410.46,374.5c-5.4,0-9.79,4.39-9.79,9.79     v504.47c0,13.64,11.1,24.74,24.74,24.74h167.53c13.64,0,24.74-11.1,24.74-24.74V384.29c0-5.4-4.39-9.79-9.79-9.79H410.46z"/></g><g><path d="M586.93,374.5H431.4V329h155.53V374.5z M446.4,359.5h125.53V344H446.4V359.5z"/></g><g><path d="M588.91,344H429.43c-5.38,0-9.76-4.38-9.76-9.76V239.5h179v94.74C598.67,339.62,594.29,344,588.91,344z M434.67,329h149     v-74.5h-149V329z"/></g><g><path d="M675.19,254.5H343.15c-11.57,0-20.98-9.41-20.98-20.98v-49.07c0-4.94,4.02-8.95,8.95-8.95h356.1     c4.94,0,8.95,4.02,8.95,8.95v49.07C696.17,245.09,686.76,254.5,675.19,254.5z M337.17,190.5v43.02c0,3.3,2.68,5.98,5.98,5.98     h332.04c3.3,0,5.98-2.68,5.98-5.98V190.5H337.17z"/></g><g><rect x="659.67" y="103" width="15" height="80"/></g><g><rect x="624.56" y="103" width="15" height="80"/></g><g><rect x="589.45" y="103" width="15" height="80"/></g><g><rect x="554.34" y="103" width="15" height="80"/></g><g><rect x="519.22" y="103" width="15" height="80"/></g><g><rect x="484.11" y="103" width="15" height="80"/></g><g><rect x="449" y="103" width="15" height="80"/></g><g><rect x="413.89" y="103" width="15" height="80"/></g><g><rect x="343.67" y="103" width="15" height="80"/></g><g><rect x="378.78" y="103" width="15" height="80"/></g><g><path d="M508.91,740.74c-12.12,0-21.86-9.44-23.15-22.45c-0.9-9.07,2.45-83.29,43.17-144.9l25.35-38.35l-11.84,44.42     c-17.51,65.69-13.45,103.55-11.26,123.89c0.68,6.29,1.17,10.84,0.92,14.68C531.25,730.98,521.28,740.74,508.91,740.74z      M516.58,632.4c-14.7,41.57-16.47,78.74-15.9,84.41c0.43,4.3,3.19,8.93,8.23,8.93c5.02,0,7.93-4.36,8.21-8.67v0     c0.17-2.55-0.29-6.76-0.86-12.1C514.69,690.42,512.21,667.33,516.58,632.4z"/></g><g><path d="M449.24,633.99c-11.11,0-20.15-9.04-20.15-20.15c0-11.11,9.04-20.15,20.15-20.15s20.15,9.04,20.15,20.15     C469.39,624.95,460.35,633.99,449.24,633.99z M449.24,608.69c-2.84,0-5.15,2.31-5.15,5.15s2.31,5.15,5.15,5.15     s5.15-2.31,5.15-5.15S452.08,608.69,449.24,608.69z"/></g><g><path d="M491.45,538.76c-6.05,0-10.98-4.93-10.98-10.98c0-6.05,4.93-10.98,10.98-10.98s10.98,4.93,10.98,10.98     C502.43,533.83,497.5,538.76,491.45,538.76z M491.45,523.76c-2.22,0-4.02,1.8-4.02,4.02s1.8,4.02,4.02,4.02s4.02-1.8,4.02-4.02     S493.67,523.76,491.45,523.76z"/></g><g><path d="M568.12,643.22c-7.43,0-13.47-6.04-13.47-13.47s6.04-13.47,13.47-13.47s13.47,6.04,13.47,13.47     S575.55,643.22,568.12,643.22z M568.12,628.22c-0.84,0-1.53,0.69-1.53,1.53s0.69,1.53,1.53,1.53s1.53-0.69,1.53-1.53     S568.96,628.22,568.12,628.22z"/></g></g></g><text x="0" y="1039" fill="#000000" font-size="5px" font-weight="bold" font-family="'Helvetica Neue', Helvetica, Arial-Unicode, Arial, Sans-serif">Created by IconPai</text><text x="0" y="1044" fill="#000000" font-size="5px" font-weight="bold" font-family="'Helvetica Neue', Helvetica, Arial-Unicode, Arial, Sans-serif">from the Noun Project</text></svg>