<!DOCTYPE svg PUBLIC "-//W3C//DTD SVG 1.1//EN" "http://www.w3.org/Graphics/SVG/1.1/DTD/svg11.dtd">
<!-- Uploaded to: SVG Repo, www.svgrepo.com, Transformed by: SVG Repo Mixer Tools -->
<svg height="64px" width="64px" version="1.1" id="Layer_1" xmlns="http://www.w3.org/2000/svg" xmlns:xlink="http://www.w3.org/1999/xlink" viewBox="0 0 512.001 512.001" xml:space="preserve" fill="#000000">
<g id="SVGRepo_bgCarrier" stroke-width="0"/>
<g id="SVGRepo_tracerCarrier" stroke-linecap="round" stroke-linejoin="round"/>
<g id="SVGRepo_iconCarrier"> <path style="fill:#FFE39C;" d="M293.468,24.625c0-9.058-7.41-16.47-16.469-16.47H212.22c-9.057,0-16.469,7.411-16.469,16.47v77.403 c0,9.057,7.411,16.469,16.469,16.469h64.779c9.058,0,16.469-7.411,16.469-16.469V24.625z"/> <path style="fill:#FED771;" d="M195.752,41.368v60.659c0,9.057,7.411,16.469,16.469,16.469h64.779 c9.058,0,16.469-7.411,16.469-16.469V41.368H195.752z"/> <g> <path style="fill:#E5AB46;" d="M244.609,82.776c-17.907,0-34.332,2.1-48.858,6.139v13.113c0,9.057,7.411,16.469,16.469,16.469 h64.779c9.058,0,16.469-7.411,16.469-16.469V88.915C278.943,84.876,262.517,82.776,244.609,82.776z"/> <path style="fill:#E5AB46;" d="M228.553,41.368c0,8.868,7.189,16.058,16.056,16.058c8.869,0,16.059-7.188,16.059-16.058 C260.668,41.368,228.553,41.368,228.553,41.368z"/> </g> <path style="fill:#6CC04A;" d="M321.464,503.845c10.773,0,17.636-1.316,24.275-8.116c24.76-25.368,39.956-60.073,39.956-98.321 c0-94.497-30.744-70.842-30.744-220.758c0-60.939-49.401-85.636-110.342-85.636c-60.939,0-110.34,24.697-110.34,85.636 c0,149.916-30.743,126.262-30.743,220.758c0,38.248,15.194,72.953,39.955,98.321c6.639,6.8,13.502,8.116,24.275,8.116H321.464z"/> <path style="opacity:0.8;fill:#C4E9F2;enable-background:new ;" d="M408.475,278.668c0-20.327-16.478-36.809-36.805-36.809 c-20.331,0-36.809,16.48-36.809,36.809c0,20.33,16.478,36.808,36.809,36.808C391.996,315.476,408.475,298.997,408.475,278.668z"/> <path style="fill:#FFFFFF;" d="M377.61,265.749c0,5.633,4.566,10.2,10.198,10.2c5.63,0,10.197-4.567,10.197-10.2 c0-5.628-4.566-10.194-10.197-10.194C382.176,255.556,377.61,260.121,377.61,265.749z"/> <circle style="opacity:0.8;fill:#C4E9F2;enable-background:new ;" cx="158.075" cy="116.854" r="32.968"/> <circle style="fill:#FFFFFF;" cx="143.624" cy="105.285" r="9.132"/> <circle style="opacity:0.8;fill:#C4E9F2;enable-background:new ;" cx="313.246" cy="57.427" r="32.968"/> <path style="fill:#FFFFFF;" d="M318.566,45.858c0,5.045,4.087,9.135,9.132,9.135c5.043,0,9.132-4.09,9.132-9.135 c0-5.042-4.089-9.129-9.132-9.129C322.655,36.727,318.566,40.816,318.566,45.858z"/> <path style="fill:#99DAEA;" d="M331.035,358.717c-0.018-0.384-0.053-0.763-0.075-1.143c-0.066-1.062-0.141-2.119-0.241-3.164 c-0.029-0.295-0.065-0.589-0.098-0.88c-4.046-38.062-31.065-66.022-31.065-122.758c0-30.345-24.6-54.945-54.946-54.945 c-30.343,0-54.944,24.601-54.944,54.945c0,56.737-27.018,84.698-31.065,122.758c-0.032,0.29-0.069,0.584-0.097,0.88 c-0.1,1.045-0.176,2.103-0.241,3.164c-0.023,0.379-0.058,0.759-0.076,1.143c-0.068,1.404-0.108,2.823-0.108,4.258 c0,47.787,38.741,86.53,86.531,86.53c47.792,0,86.533-38.743,86.533-86.53C331.142,361.54,331.102,360.121,331.035,358.717z"/> <path style="fill:#FFFFFF;" d="M160.716,384.234c9.477,37.508,43.441,65.272,83.893,65.272c40.457,0,74.418-27.764,83.894-65.272 H160.716z"/> <path style="fill:#1E252B;" d="M416.63,278.668c0-24.793-20.169-44.964-44.96-44.964c-2.245,0-4.45,0.171-6.609,0.489 c-1.312-16.795-1.955-35.725-1.956-57.544c0-31.157-12.393-56.186-35.839-72.38c-3.097-2.139-6.411-4.105-9.883-5.932 c20.736-2.082,36.98-19.636,36.98-40.91c0-22.673-18.446-41.119-41.119-41.119c-4.345,0-8.531,0.683-12.465,1.937 C297.962,7.749,288.371,0,276.999,0H212.22c-13.577,0-24.623,11.046-24.623,24.625v63.644c-7.48-7.723-17.945-12.537-29.521-12.537 c-22.672,0-41.118,18.447-41.118,41.121c0,11.982,5.155,22.78,13.36,30.302c-2.778,9.044-4.206,18.928-4.205,29.495 c0,41.682-2.402,69.694-5.844,90.525c-0.151,0.539-0.247,1.103-0.283,1.682c-2.578,15.064-5.7,26.324-8.825,36.365 c-0.001,0.004-0.002,0.009-0.004,0.013c-0.889,2.861-1.78,5.624-2.657,8.346c-6.751,20.943-13.128,40.724-13.128,83.828 c0,39.147,15.014,76.087,42.275,104.017c8.596,8.805,17.895,10.574,30.11,10.574h153.709c12.216,0,21.515-1.769,30.111-10.575 c27.261-27.929,42.274-64.871,42.274-104.016c-0.001-37.283-4.773-57.116-10.431-75.346 C402.529,316.883,416.63,299.395,416.63,278.668z M313.245,32.617c13.681,0,24.809,11.129,24.809,24.809 c0,13.68-11.13,24.808-24.809,24.808c-13.68,0-24.809-11.129-24.809-24.808C288.436,43.746,299.566,32.617,313.245,32.617z M203.907,24.625c0-4.585,3.73-8.315,8.314-8.315h64.779c4.584,0,8.314,3.731,8.314,8.315v2.662 c-1.941,1.801-3.707,3.785-5.272,5.926h-76.134V24.625z M203.907,49.523h17.908c3.354,9.35,12.304,16.058,22.795,16.058 c10.49,0,19.44-6.708,22.796-16.058h5.491c-0.5,2.56-0.77,5.201-0.77,7.905c0,11.498,4.749,21.904,12.383,29.373 c-12.212-2.598-25.582-3.94-39.9-3.94c-14.678,0-28.291,1.369-40.703,4.071V49.523z M158.076,92.04 c13.682,0,24.812,11.13,24.812,24.812c0,13.678-11.13,24.807-24.812,24.807c-13.678,0-24.808-11.129-24.808-24.807 C133.268,103.171,144.398,92.04,158.076,92.04z M339.904,490.033c-4.284,4.388-8.42,5.657-18.44,5.657H167.756 c-10.02,0-14.156-1.269-18.44-5.656c-24.27-24.866-37.635-57.761-37.635-92.625c0-18.306,1.169-31.956,3.058-43.322h17.938 c4.504,0,8.155-3.65,8.155-8.155c0-4.505-3.651-8.155-8.155-8.155h-14.443c1.744-6.642,3.723-12.781,5.789-19.191 c0.297-0.921,0.595-1.845,0.894-2.777h11.993c4.504,0,8.155-3.65,8.155-8.155c0-4.505-3.651-8.155-8.155-8.155h-7.044 c1.807-6.502,3.558-13.668,5.148-21.969h10.689c4.504,0,8.155-3.65,8.155-8.155c0-4.505-3.651-8.155-8.155-8.155h-8.014 c0.918-6.63,1.736-13.904,2.424-21.969h15.836c4.504,0,8.155-3.65,8.155-8.155c0-4.505-3.651-8.155-8.155-8.155h-14.697 c0.746-13.383,1.17-28.655,1.17-46.29c0-7.443,0.825-14.422,2.423-20.877c4.156,1.417,8.603,2.196,13.23,2.196 c22.675,0,41.121-18.445,41.121-41.117c0-3.972-0.577-7.81-1.633-11.446c13.686-4.137,29.462-6.237,47.045-6.237 c30.469,0,55.847,6.405,73.39,18.52c19.109,13.199,28.798,33.036,28.798,58.961c0,17.007,0.386,32.322,1.169,46.29h-14.697 c-4.504,0-8.155,3.65-8.155,8.155c0,4.505,3.651,8.155,8.155,8.155h15.843c0.015,0.174,0.029,0.348,0.046,0.522 c-13.409,7.791-22.451,22.304-22.451,38.896c0,23.123,17.546,42.215,40.022,44.686c1.51,4.742,2.951,9.441,4.259,14.424h-14.443 c-4.504,0-8.155,3.65-8.155,8.155c0,4.505,3.651,8.155,8.155,8.155h17.939c1.889,11.366,3.059,25.016,3.059,43.322 C377.54,432.273,364.174,465.167,339.904,490.033z M371.67,307.321c-15.8,0-28.654-12.853-28.654-28.653 c0-15.8,12.854-28.654,28.654-28.654c15.798,0,28.65,12.853,28.65,28.654C400.32,294.467,387.468,307.321,371.67,307.321z M339.127,357.487l-0.028-0.416c-0.072-1.154-0.154-2.304-0.267-3.477l-0.102-0.924c-1.786-16.807-7.597-31.379-13.749-46.807 c-8.491-21.292-17.27-43.309-17.27-75.09c0-34.794-28.307-63.1-63.1-63.1s-63.099,28.306-63.099,63.1 c0,31.781-8.78,53.798-17.27,75.092c-6.151,15.427-11.962,29.998-13.746,46.778l-0.029,0.258c-0.027,0.24-0.054,0.481-0.079,0.732 c-0.109,1.137-0.192,2.288-0.263,3.441l-0.025,0.366c-0.022,0.295-0.042,0.588-0.057,0.884c-0.079,1.631-0.117,3.153-0.117,4.652 c0,52.21,42.476,94.685,94.686,94.685c52.211,0,94.688-42.475,94.688-94.685c0-1.501-0.038-3.022-0.117-4.653 C339.166,358.042,339.147,357.764,339.127,357.487z M244.609,441.35c-32.817,0-60.97-20.282-72.629-48.962h145.258 C305.581,421.069,277.427,441.35,244.609,441.35z M321.871,376.079H167.349c-0.721-4.264-1.117-8.637-1.117-13.103 c0-1.234,0.033-2.498,0.098-3.864c0.008-0.159,0.021-0.319,0.032-0.476l0.039-0.56c0.06-0.968,0.128-1.932,0.219-2.877l0.089-0.805 c1.549-14.574,6.957-28.133,12.68-42.488c8.639-21.665,18.43-46.22,18.43-81.132c0-25.801,20.99-46.791,46.79-46.791 c25.801,0,46.791,20.991,46.791,46.791c0,34.912,9.791,59.467,18.43,81.131c5.725,14.355,11.131,27.914,12.684,42.519l0.086,0.768 c0.091,0.954,0.16,1.92,0.217,2.852l0.072,1.069c0.065,1.366,0.098,2.629,0.098,3.864 C322.988,367.442,322.592,371.814,321.871,376.079z"/> </g>
</svg>